<svg xmlns="http://www.w3.org/2000/svg" width="147" height="144"><path style="fill:#000" d="M61.856 40.79c0 9.704-7.977 17.552-17.993 17.713-13.519.219-19.992-9.272-19.997-21.727-.002-3.84-.685-8.197 5.921-18.577 2.857-4.487 6.392-8.154 10.471-10.931C47.204 2.539 55.59.288 63.888.218 74.27.129 85.048 3.167 92.99 9.808c9.358 7.826 17.248 24.768 14.207 44.643-2.696 17.618-12.523 32.153-18.079 39.639-5.631 7.587-10.615 13.102-18.772 19.764-7.607 6.213-14.644 12.247-22.033 16.778-8.299 5.088-16.27 9.007-23.106 11.96-4.123 1.78-6.022-3.785-2.412-5.736 5.06-2.734 9.61-5.225 13.57-7.727 4.946-3.124 8.83-6.084 12.228-8.793 3.206-2.555 6.005-4.886 8.039-6.92 8.87-8.871 23.573-28.534 28.122-54.532 2.534-14.488.816-28.597-2.654-37.2-2.656-6.587-6.729-11.063-11.762-13.394-6.359-2.945-15.365-2.56-22.26.358-10.661 4.512-15.53 19.3-14.746 18.396a17.499 17.499 0 0 1 10.95-3.828c9.706 0 17.573 7.868 17.573 17.573z"/><path style="fill:#623900" d="M.074 66.547c8.629-3.85 17.272-7.656 26.451-9.783-2.275-.17-4.792-.09-7.425.112 6.404-2.777 12.584-4.121 20.127-6.4 7.327-2.212 14.874-4.105 25.067-7.473 2.361-.78 10.086-3.855 13.712-5.627 6.148-3.003 10.28-5.61 14-7.879.126-.077-6.428 7.706-6.428 7.706 13.865-.293 21.555-2.055 32.52-4.346 9.303-1.943 18.831-4.827 28.467-7.892-2.85 4.203-6.709 8.576-11.193 11.67-1.188.82-2.95 2.06-9.188 4.385-7.089 2.643-16.023 7.203-25.343 10.918-6.451 2.572-12.646 4.926-17.421 6.574 2.396-1.57 5.18-3.461 7.496-5.354 0 0-14.845 3.745-31.859 7.202-16.662 3.385-35.418 6.475-42.982 7.306-3.457.38-5.248.5-7.333.475C1.17 68.046.074 66.547.074 66.547z"/><circle style="fill:#000" cx="122.277" cy="20.777" r="8.076"/><circle style="fill:#000" cx="122.277" cy="61.785" r="8.076"/></svg>