<svg xmlns="http://www.w3.org/2000/svg" width="85" height="85"><path fill="#2d2d2d" d="M1.024 24.173v34.562H3.51v.829H.071v-36.22H3.51v.83zm9.58 10.957v1.749h.05a5.058 5.052 0 0 1 1.685-1.55c.658-.365 1.412-.549 2.26-.549.816 0 1.561.159 2.236.476.674.316 1.187.873 1.536 1.673.383-.567.902-1.066 1.561-1.499.658-.434 1.435-.65 2.335-.65a6.93 6.93 0 0 1 1.898.25 3.838 3.838 0 0 1 1.5.8c.414.366.74.845.973 1.436.232.591.35 1.302.35 2.137v8.645h-3.546v-7.321c0-.434-.017-.841-.05-1.225a2.613 2.61 0 0 0-.274-1 1.67 1.668 0 0 0-.662-.674c-.292-.166-.687-.25-1.187-.25s-.903.097-1.211.287a2.09 2.09 0 0 0-.725.75 3.009 3.006 0 0 0-.349 1.05 8.02 8.011 0 0 0-.088 1.187v7.196h-3.547v-7.246c0-.383-.007-.762-.023-1.137a3.203 3.2 0 0 0-.213-1.038 1.6 1.598 0 0 0-.624-.762c-.293-.19-.721-.286-1.287-.286a2.642 2.639 0 0 0-.662.113 2.2 2.197 0 0 0-.8.423c-.258.209-.478.509-.661.9-.183.391-.275.903-.275 1.536v7.497H7.257V35.13Zm18.656 1.9a4.253 4.248 0 0 1 1.398-1.326 6.088 6.082 0 0 1 1.91-.712 10.86 10.848 0 0 1 2.136-.212c.65 0 1.308.045 1.973.137a6.053 6.053 0 0 1 1.824.538 3.61 3.61 0 0 1 1.35 1.111c.349.476.523 1.104.523 1.887v6.72c0 .585.034 1.142.1 1.674.066.533.182.933.35 1.2h-3.596a5.028 5.023 0 0 1-.25-1.25 4.616 4.616 0 0 1-1.997 1.224 8.031 8.023 0 0 1-2.348.352c-.617 0-1.19-.076-1.723-.227a3.936 3.932 0 0 1-1.4-.699 3.254 3.25 0 0 1-.936-1.199c-.225-.482-.338-1.058-.338-1.724 0-.732.13-1.336.388-1.812a3.24 3.24 0 0 1 .999-1.137 4.474 4.474 0 0 1 1.399-.636 15.025 15.025 0 0 1 1.586-.338c.533-.082 1.057-.15 1.573-.2a9.3 9.3 0 0 0 1.374-.224c.4-.1.715-.246.949-.438.233-.191.34-.47.325-.838 0-.381-.062-.686-.188-.91a1.38 1.378 0 0 0-.5-.526 1.97 1.967 0 0 0-.724-.249 6 5.993 0 0 0-.886-.062c-.7 0-1.248.15-1.649.45-.399.298-.632.8-.699 1.498h-3.546c.05-.833.257-1.523.623-2.073zm7.005 5.008a5.776 5.77 0 0 1-.724.187 10.974 10.963 0 0 1-.812.125 16.67 16.67 0 0 0-.849.124 6.367 6.36 0 0 0-.787.2 2.332 2.33 0 0 0-.673.338 1.605 1.605 0 0 0-.463.537c-.116.218-.174.492-.174.825 0 .317.058.583.174.8.117.217.275.387.475.512.2.125.432.212.7.262.265.05.54.075.823.075.7 0 1.24-.116 1.623-.35.384-.233.666-.512.85-.837.182-.324.296-.653.337-.986.041-.334.063-.6.063-.8v-1.325a1.587 1.586 0 0 1-.563.313zm13.45-6.908v2.374h-2.598v6.395c0 .6.1 1 .3 1.2.2.2.6.3 1.198.3.2 0 .391-.008.575-.025.182-.017.358-.042.525-.075v2.747a8.492 8.483 0 0 1-1 .101 24.568 24.542 0 0 1-1.074.025c-.548 0-1.07-.038-1.56-.113a3.665 3.661 0 0 1-1.299-.437 2.313 2.31 0 0 1-.887-.924c-.216-.4-.325-.925-.325-1.575v-7.62h-2.147V35.13h2.147v-3.873h3.547v3.873h2.597zm5.069 0v2.399h.05a4.43 4.425 0 0 1 1.648-1.987 4.776 4.771 0 0 1 1.175-.563 4.233 4.229 0 0 1 1.298-.199c.233 0 .49.042.774.125v3.298a6.646 6.639 0 0 0-.599-.088 6.31 6.304 0 0 0-.674-.037c-.65 0-1.2.109-1.649.325a2.857 2.854 0 0 0-1.086.887 3.563 3.56 0 0 0-.587 1.311 7.165 7.157 0 0 0-.175 1.624v5.821h-3.546V35.13Zm6.444-1.999v-2.924h3.546v2.924h-3.545Zm3.546 2v12.915h-3.545V35.13h3.546zm1.848 0h4.046l2.273 3.372 2.247-3.373h3.922l-4.246 6.047 4.77 6.87h-4.047l-2.696-4.072-2.698 4.073h-3.97l4.645-6.797zm17.343 23.604V24.173h-2.488v-.829h3.441v36.22h-3.44v-.829Z"/></svg>