<svg xmlns="http://www.w3.org/2000/svg" width="85" height="85" viewBox="0 0 172 172"><g fill="none" fill-rule="evenodd"><circle cx="85.9" cy="85.9" r="85.5" fill="#FF4500"/><path fill="#FFF" fill-rule="nonzero" d="M142.9 85.9c0-6.9-5.6-12.5-12.5-12.5-3.4 0-6.4 1.3-8.6 3.5-8.5-6.1-20.3-10.1-33.3-10.6l5.7-26.7 18.5 3.9c.2 4.7 4.1 8.5 8.9 8.5 4.9 0 8.9-4 8.9-8.9s-4-8.9-8.9-8.9c-3.5 0-6.5 2-7.9 5L93 34.8c-.6-.1-1.2 0-1.7.3s-.8.8-1 1.4L84 66.3c-13.3.4-25.2 4.3-33.8 10.6-2.2-2.1-5.3-3.5-8.6-3.5-6.9 0-12.5 5.6-12.5 12.5 0 5.1 3 9.4 7.4 11.4-.2 1.2-.3 2.5-.3 3.8 0 19.2 22.3 34.7 49.9 34.7 27.6 0 49.9-15.5 49.9-34.7 0-1.3-.1-2.5-.3-3.7 4.1-2 7.2-6.4 7.2-11.5Zm-85.5 8.9c0-4.9 4-8.9 8.9-8.9s8.9 4 8.9 8.9-4 8.9-8.9 8.9-8.9-4-8.9-8.9Zm49.7 23.5c-6.1 6.1-17.7 6.5-21.1 6.5-3.4 0-15.1-.5-21.1-6.5-.9-.9-.9-2.4 0-3.3.9-.9 2.4-.9 3.3 0 3.8 3.8 12 5.2 17.9 5.2 5.9 0 14-1.4 17.9-5.2.9-.9 2.4-.9 3.3 0 .7 1 .7 2.4-.2 3.3Zm-1.6-14.6c-4.9 0-8.9-4-8.9-8.9s4-8.9 8.9-8.9 8.9 4 8.9 8.9-4 8.9-8.9 8.9Z"/></g></svg>