<?xml version="1.0" encoding="UTF-8" standalone="no"?>
<!-- Generator: Adobe Illustrator 21.0.0, SVG Export Plug-In . SVG Version: 6.00 Build 0)  -->

<svg
   version="1.1"
   id="Layer_1"
   x="85px"
   y="85px"
   viewBox="0 0 192 192"
   style="enable-background:new 0 0 192 192;"
   xml:space="preserve"
   sodipodi:docname="youtube.svg"
   inkscape:export-filename="youtube.svg"
   inkscape:export-xdpi="96"
   inkscape:export-ydpi="96"
   inkscape:version="1.2.2 (b0a8486541, 2022-12-01)"
   xmlns:inkscape="http://www.inkscape.org/namespaces/inkscape"
   xmlns:sodipodi="http://sodipodi.sourceforge.net/DTD/sodipodi-0.dtd"
   xmlns="http://www.w3.org/2000/svg"
   xmlns:svg="http://www.w3.org/2000/svg"><defs
   id="defs13" /><sodipodi:namedview
   id="namedview11"
   pagecolor="#ffffff"
   bordercolor="#000000"
   borderopacity="0.25"
   inkscape:showpageshadow="2"
   inkscape:pageopacity="0.0"
   inkscape:pagecheckerboard="0"
   inkscape:deskcolor="#d1d1d1"
   showgrid="false"
   inkscape:zoom="3.8697917"
   inkscape:cx="96"
   inkscape:cy="95.870794"
   inkscape:window-width="1920"
   inkscape:window-height="1007"
   inkscape:window-x="0"
   inkscape:window-y="0"
   inkscape:window-maximized="1"
   inkscape:current-layer="Layer_1" />
<style
   type="text/css"
   id="style2">
	.st0{fill:#EE3124;}
	.st1{fill:#FFFFFF;}
</style>
<g
   id="g8">
	<path
   class="st0"
   d="M180.3,53.4c-2-7.6-8-13.6-15.6-15.7C151,34,96,34,96,34s-55,0-68.8,3.7c-7.6,2-13.5,8-15.6,15.7   C8,67.2,8,96,8,96s0,28.8,3.7,42.6c2,7.6,8,13.6,15.6,15.7C41,158,96,158,96,158s55,0,68.8-3.7c7.6-2,13.5-8,15.6-15.7   C184,124.8,184,96,184,96S184,67.2,180.3,53.4z"
   id="path4" />
	<polygon
   class="st1"
   points="78,122.2 78,69.8 124,96  "
   id="polygon6" />
</g>
</svg>
